<?xml version="1.0" encoding="UTF-8"?>
<svg id="Camada_1" data-name="Camada 1" xmlns="http://www.w3.org/2000/svg" xmlns:xlink="http://www.w3.org/1999/xlink" viewBox="0 0 492.66 492.57">
  <defs>
    <style>
      .cls-1 {
        fill: #fff;
      }

      .cls-2 {
        fill: none;
      }

      .cls-3 {
        fill: url(#Gradiente_sem_nome_8-3);
      }

      .cls-4 {
        fill: url(#Gradiente_sem_nome_8-2);
      }

      .cls-5 {
        fill: url(#Gradiente_sem_nome_8);
      }
    </style>
    <linearGradient id="Gradiente_sem_nome_8" data-name="Gradiente sem nome 8" x1="345.22" y1="82.04" x2="345.34" y2="82.04" gradientUnits="userSpaceOnUse">
      <stop offset="0" stop-color="#a67e38"/>
      <stop offset=".99" stop-color="#ebd591"/>
    </linearGradient>
    <linearGradient id="Gradiente_sem_nome_8-2" data-name="Gradiente sem nome 8" x1="115.79" y1="35.34" x2="351.83" y2="35.34" xlink:href="#Gradiente_sem_nome_8"/>
    <linearGradient id="Gradiente_sem_nome_8-3" data-name="Gradiente sem nome 8" x1="141.59" y1="124.66" x2="406.79" y2="124.66" xlink:href="#Gradiente_sem_nome_8"/>
  </defs>
  <g>
    <path class="cls-1" d="M61.42,486.97c-1.51,0-2.92-.26-4.21-.78-1.3-.52-2.43-1.25-3.39-2.19-.96-.94-1.71-2.05-2.24-3.31s-.8-2.65-.8-4.14.27-2.87.8-4.14,1.28-2.37,2.24-3.31,2.09-1.67,3.39-2.2c1.3-.52,2.7-.78,4.21-.78,1.39,0,2.71.23,3.95.68,1.24.45,2.31,1.14,3.21,2.06l-.62.65c-.92-.88-1.93-1.52-3.02-1.9-1.09-.38-2.25-.57-3.49-.57-1.38,0-2.65.24-3.83.72-1.18.48-2.21,1.15-3.08,2.02-.87.86-1.55,1.87-2.03,3.02-.48,1.15-.72,2.4-.72,3.76s.24,2.61.72,3.76c.48,1.15,1.16,2.16,2.03,3.02.87.86,1.9,1.54,3.08,2.02,1.18.48,2.46.72,3.83.72,1.24,0,2.4-.19,3.49-.57,1.09-.38,2.1-1.03,3.02-1.93l.62.65c-.9.92-1.97,1.62-3.21,2.08-1.24.46-2.55.69-3.95.69Z"/>
    <path class="cls-1" d="M78.39,486.95c-1.51,0-2.85-.33-4.01-.99-1.16-.66-2.07-1.58-2.74-2.75-.67-1.18-1-2.51-1-4.01s.31-2.85.93-4.01c.62-1.16,1.47-2.07,2.56-2.74,1.09-.67,2.32-1,3.7-1s2.58.32,3.67.97,1.94,1.55,2.56,2.7c.62,1.15.93,2.47.93,3.96v.27h-13.7v-.8h13.17l-.38.47c0-1.28-.27-2.42-.81-3.43-.54-1.01-1.28-1.81-2.22-2.39-.94-.58-2.01-.87-3.21-.87s-2.27.29-3.21.87c-.94.58-1.69,1.38-2.23,2.39-.54,1.01-.81,2.17-.81,3.46v.18c0,1.34.29,2.52.88,3.55s1.39,1.84,2.42,2.42c1.02.58,2.19.87,3.51.87,1,0,1.95-.19,2.84-.56.89-.37,1.64-.94,2.22-1.71l.62.65c-.69.82-1.53,1.45-2.52,1.87-.99.42-2.05.63-3.17.63ZM76.36,468.97l4.1-3.33h1.59l-4.51,3.33h-1.18Z"/>
    <path class="cls-1" d="M95.54,486.95c-1.41,0-2.69-.33-3.82-.99-1.13-.66-2.02-1.57-2.68-2.74-.66-1.17-.99-2.51-.99-4.02s.33-2.87.99-4.02c.66-1.15,1.55-2.06,2.68-2.73,1.13-.67,2.4-1,3.82-1s2.61.32,3.71.97,1.97,1.55,2.61,2.71c.64,1.16.96,2.51.96,4.07s-.32,2.89-.96,4.07c-.64,1.18-1.51,2.09-2.61,2.73-1.1.64-2.34.96-3.71.96ZM95.57,486.06c1.26,0,2.38-.29,3.36-.87.98-.58,1.76-1.39,2.33-2.43.57-1.04.85-2.23.85-3.57s-.28-2.55-.85-3.58-1.35-1.83-2.33-2.4c-.98-.57-2.1-.85-3.36-.85s-2.35.29-3.33.85c-.98.57-1.76,1.37-2.34,2.4-.58,1.03-.87,2.22-.87,3.58s.29,2.52.87,3.57c.58,1.04,1.36,1.85,2.34,2.43.98.58,2.09.87,3.33.87ZM102.14,486.86v-5.36l.27-2.33-.29-2.33v-11.85h.97v21.86h-.94Z"/>
    <path class="cls-1" d="M115.78,486.95c-1.32,0-2.45-.24-3.39-.72s-1.67-1.2-2.18-2.15c-.51-.95-.77-2.13-.77-3.52v-8.99h.97v8.93c0,1.83.47,3.21,1.41,4.15s2.27,1.41,3.98,1.41c1.22,0,2.27-.26,3.17-.78.89-.52,1.58-1.25,2.05-2.2.47-.94.71-2.03.71-3.27v-8.25h.97v15.29h-.94v-4.27l.12.27c-.43,1.26-1.18,2.25-2.24,2.99-1.06.74-2.35,1.1-3.86,1.1Z"/>
    <path class="cls-1" d="M129.25,486.86v-21.86h.97v21.86h-.97Z"/>
    <path class="cls-1" d="M140.8,486.95c-1.16,0-2.15-.18-2.96-.53-.82-.35-1.44-.86-1.87-1.52-.43-.66-.65-1.41-.65-2.25,0-.75.18-1.44.53-2.08.35-.64.94-1.15,1.75-1.53.81-.38,1.91-.57,3.29-.57h5.92v.8h-5.92c-1.67,0-2.85.31-3.55.94-.7.63-1.05,1.42-1.05,2.39,0,1.08.4,1.94,1.21,2.58.81.64,1.92.96,3.36.96s2.58-.32,3.51-.96c.92-.64,1.62-1.55,2.09-2.73l.32.65c-.39,1.16-1.1,2.09-2.12,2.8-1.02.71-2.31,1.06-3.86,1.06ZM146.48,486.86v-3.57l-.03-.53v-5.8c0-1.51-.4-2.66-1.21-3.45-.81-.79-1.97-1.18-3.51-1.18-1.12,0-2.14.19-3.06.57-.92.38-1.72.88-2.39,1.49l-.53-.71c.73-.69,1.62-1.23,2.68-1.64,1.06-.4,2.17-.6,3.33-.6,1.83,0,3.23.47,4.2,1.4.97.93,1.46,2.3,1.46,4.11v9.9h-.94Z"/>
    <path class="cls-1" d="M161.24,492.57v-21.01h.94v5.36l-.27,2.33.29,2.33v10.99h-.97ZM168.79,486.95c-1.38,0-2.61-.32-3.71-.96-1.1-.64-1.97-1.54-2.61-2.71-.64-1.17-.96-2.52-.96-4.05s.32-2.91.96-4.08c.64-1.17,1.51-2.08,2.61-2.73s2.34-.97,3.71-.97,2.69.33,3.82,1c1.13.67,2.02,1.58,2.68,2.74.66,1.16.99,2.5.99,4.04s-.33,2.85-.99,4.01c-.66,1.16-1.55,2.07-2.68,2.73-1.13.66-2.4.99-3.82.99ZM168.76,486.06c1.24,0,2.35-.28,3.34-.85.99-.57,1.77-1.38,2.34-2.42.57-1.04.85-2.23.85-3.56s-.29-2.57-.85-3.59c-.57-1.02-1.35-1.82-2.34-2.4-.99-.58-2.11-.87-3.34-.87s-2.38.29-3.36.87c-.98.58-1.76,1.38-2.33,2.4-.57,1.02-.85,2.22-.85,3.59s.28,2.52.85,3.56c.57,1.04,1.35,1.85,2.33,2.42.98.57,2.1.85,3.36.85Z"/>
    <path class="cls-1" d="M181.07,486.86v-15.29h.94v4.21l-.09-.27c.41-1.28,1.13-2.27,2.17-2.99,1.03-.72,2.32-1.08,3.87-1.08v.97h-.27c-1.77,0-3.15.56-4.15,1.68-1,1.12-1.5,2.66-1.5,4.63v8.13h-.97Z"/>
    <path class="cls-1" d="M197.87,486.95c-1.43,0-2.72-.33-3.85-.99-1.13-.66-2.02-1.57-2.68-2.74-.66-1.17-.99-2.51-.99-4.02s.33-2.85.99-4.01c.66-1.16,1.55-2.07,2.68-2.74,1.13-.67,2.41-1,3.85-1s2.72.33,3.86.99c1.14.66,2.03,1.57,2.68,2.73.65,1.16.97,2.5.97,4.04s-.32,2.83-.97,4.01c-.65,1.18-1.54,2.1-2.68,2.75-1.14.66-2.43.99-3.86.99ZM197.87,486.06c1.26,0,2.38-.29,3.37-.87.99-.58,1.77-1.39,2.33-2.43.56-1.04.84-2.23.84-3.57s-.28-2.55-.84-3.58c-.56-1.03-1.34-1.83-2.33-2.4-.99-.57-2.11-.85-3.34-.85s-2.38.29-3.36.85c-.98.57-1.76,1.37-2.34,2.4-.58,1.03-.87,2.22-.87,3.58s.29,2.52.87,3.57c.58,1.04,1.36,1.85,2.34,2.43.98.58,2.09.87,3.33.87Z"/>
    <path class="cls-1" d="M207.56,472.42v-.85h8.9v.85h-8.9ZM210.45,486.86v-18c0-1.2.34-2.16,1.02-2.87s1.65-1.08,2.9-1.08c.57,0,1.12.08,1.67.25.54.17,1,.43,1.37.78l-.5.74c-.31-.31-.69-.55-1.12-.69-.43-.15-.88-.22-1.36-.22-.98,0-1.73.28-2.24.83-.51.55-.77,1.35-.77,2.39v17.89h-.97ZM220.06,467.56c-.26,0-.48-.1-.68-.29-.2-.2-.29-.41-.29-.65,0-.27.1-.51.29-.69.2-.19.42-.28.68-.28.27,0,.51.09.69.28.19.19.28.41.28.66s-.09.48-.28.68c-.19.2-.42.29-.69.29ZM219.56,486.86v-15.29h.97v15.29h-.97Z"/>
    <path class="cls-1" d="M230.75,486.95c-1.26,0-2.44-.19-3.54-.57-1.1-.38-1.94-.87-2.5-1.46l.47-.77c.57.51,1.35.96,2.33,1.36.98.39,2.07.59,3.27.59,1.71,0,2.94-.29,3.7-.88.76-.59,1.13-1.36,1.13-2.3,0-.69-.19-1.23-.56-1.62-.37-.39-.86-.7-1.47-.91-.61-.22-1.28-.39-2.02-.52-.74-.13-1.48-.27-2.22-.44-.75-.17-1.42-.39-2.03-.68-.61-.28-1.1-.68-1.47-1.19-.37-.51-.56-1.19-.56-2.03,0-.73.2-1.39.6-2,.4-.61,1.02-1.1,1.84-1.49.83-.38,1.88-.57,3.15-.57.94,0,1.89.14,2.84.43.95.28,1.71.66,2.28,1.13l-.5.77c-.61-.49-1.32-.85-2.14-1.09-.82-.24-1.66-.35-2.52-.35-1.59,0-2.75.3-3.48.91-.73.61-1.09,1.35-1.09,2.24,0,.71.19,1.27.56,1.69.37.42.86.74,1.47.96.61.22,1.28.39,2.02.53.74.14,1.47.29,2.21.44.74.16,1.41.37,2.02.65.61.28,1.1.66,1.47,1.15.37.49.56,1.16.56,2,0,.79-.22,1.49-.66,2.11-.44.62-1.09,1.1-1.94,1.43-.85.33-1.93.5-3.23.5Z"/>
    <path class="cls-1" d="M244.6,486.95c-1.26,0-2.44-.19-3.54-.57-1.1-.38-1.94-.87-2.5-1.46l.47-.77c.57.51,1.35.96,2.33,1.36.98.39,2.07.59,3.27.59,1.71,0,2.94-.29,3.7-.88.76-.59,1.13-1.36,1.13-2.3,0-.69-.19-1.23-.56-1.62-.37-.39-.86-.7-1.47-.91-.61-.22-1.28-.39-2.02-.52-.74-.13-1.48-.27-2.22-.44-.75-.17-1.42-.39-2.03-.68-.61-.28-1.1-.68-1.47-1.19-.37-.51-.56-1.19-.56-2.03,0-.73.2-1.39.6-2,.4-.61,1.02-1.1,1.84-1.49.83-.38,1.88-.57,3.15-.57.94,0,1.89.14,2.84.43.95.28,1.71.66,2.28,1.13l-.5.77c-.61-.49-1.32-.85-2.14-1.09-.82-.24-1.66-.35-2.52-.35-1.59,0-2.75.3-3.48.91-.73.61-1.09,1.35-1.09,2.24,0,.71.19,1.27.56,1.69.37.42.86.74,1.47.96.61.22,1.28.39,2.02.53.74.14,1.47.29,2.21.44.74.16,1.41.37,2.02.65.61.28,1.1.66,1.47,1.15.37.49.56,1.16.56,2,0,.79-.22,1.49-.66,2.11-.44.62-1.09,1.1-1.94,1.43-.85.33-1.93.5-3.23.5Z"/>
    <path class="cls-1" d="M255.24,467.56c-.26,0-.48-.1-.68-.29-.2-.2-.29-.41-.29-.65,0-.27.1-.51.29-.69.2-.19.42-.28.68-.28.27,0,.51.09.69.28.19.19.28.41.28.66s-.09.48-.28.68c-.19.2-.42.29-.69.29ZM254.77,486.86v-15.29h.97v15.29h-.97Z"/>
    <path class="cls-1" d="M268.05,486.95c-1.43,0-2.72-.33-3.85-.99-1.13-.66-2.02-1.57-2.68-2.74-.66-1.17-.99-2.51-.99-4.02s.33-2.85.99-4.01c.66-1.16,1.55-2.07,2.68-2.74,1.13-.67,2.41-1,3.85-1s2.72.33,3.86.99c1.14.66,2.03,1.57,2.68,2.73.65,1.16.97,2.5.97,4.04s-.32,2.83-.97,4.01c-.65,1.18-1.54,2.1-2.68,2.75-1.14.66-2.43.99-3.86.99ZM268.05,486.06c1.26,0,2.38-.29,3.37-.87.99-.58,1.77-1.39,2.33-2.43.56-1.04.84-2.23.84-3.57s-.28-2.55-.84-3.58c-.56-1.03-1.34-1.83-2.33-2.4-.99-.57-2.11-.85-3.34-.85s-2.38.29-3.36.85c-.98.57-1.76,1.37-2.34,2.4-.58,1.03-.87,2.22-.87,3.58s.29,2.52.87,3.57c.58,1.04,1.36,1.85,2.34,2.43.98.58,2.09.87,3.33.87Z"/>
    <path class="cls-1" d="M280.37,486.86v-15.29h.94v4.3l-.12-.27c.47-1.28,1.25-2.29,2.34-3.03,1.09-.75,2.44-1.12,4.05-1.12,1.26,0,2.34.25,3.26.74.91.49,1.62,1.21,2.14,2.17.51.95.77,2.13.77,3.52v8.99h-.97v-8.93c0-1.83-.46-3.21-1.39-4.15s-2.22-1.41-3.89-1.41c-1.28,0-2.38.26-3.3.77-.92.51-1.63,1.24-2.12,2.18-.49.94-.74,2.04-.74,3.3v8.25h-.97Z"/>
    <path class="cls-1" d="M304.15,486.95c-1.16,0-2.15-.18-2.96-.53-.82-.35-1.44-.86-1.87-1.52-.43-.66-.65-1.41-.65-2.25,0-.75.18-1.44.53-2.08.35-.64.94-1.15,1.75-1.53.81-.38,1.91-.57,3.29-.57h5.92v.8h-5.92c-1.67,0-2.85.31-3.55.94-.7.63-1.05,1.42-1.05,2.39,0,1.08.4,1.94,1.21,2.58.81.64,1.92.96,3.36.96s2.58-.32,3.51-.96c.92-.64,1.62-1.55,2.09-2.73l.32.65c-.39,1.16-1.1,2.09-2.12,2.8-1.02.71-2.31,1.06-3.86,1.06ZM309.84,486.86v-3.57l-.03-.53v-5.8c0-1.51-.4-2.66-1.21-3.45-.81-.79-1.97-1.18-3.51-1.18-1.12,0-2.14.19-3.06.57-.92.38-1.72.88-2.39,1.49l-.53-.71c.73-.69,1.62-1.23,2.68-1.64,1.06-.4,2.17-.6,3.33-.6,1.83,0,3.23.47,4.2,1.4.97.93,1.46,2.3,1.46,4.11v9.9h-.94Z"/>
    <path class="cls-1" d="M317.14,486.86v-21.86h.97v21.86h-.97Z"/>
    <path class="cls-1" d="M332.61,486.86v-20.63h.83l15.15,19.45h-.5v-19.45h1v20.63h-.83l-15.15-19.45h.5v19.45h-1Z"/>
    <path class="cls-1" d="M358.87,474.16c-.94,0-1.78-.2-2.52-.59-.74-.39-1.31-.94-1.72-1.64-.41-.7-.62-1.49-.62-2.37s.21-1.73.62-2.42c.41-.69.99-1.23,1.72-1.64.74-.4,1.58-.6,2.52-.6s1.78.2,2.52.6c.74.4,1.31.95,1.72,1.64.41.69.62,1.49.62,2.42s-.21,1.68-.62,2.37c-.41.7-.99,1.24-1.72,1.64-.74.39-1.58.59-2.52.59ZM358.87,473.45c1.18,0,2.15-.36,2.92-1.09.77-.73,1.15-1.66,1.15-2.8s-.38-2.13-1.15-2.84c-.77-.72-1.74-1.08-2.92-1.08s-2.13.36-2.9,1.08c-.78.72-1.16,1.66-1.16,2.81s.39,2.1,1.16,2.83c.78.73,1.74,1.09,2.9,1.09Z"/>
    <path class="cls-1" d="M382.2,486.97c-1.81,0-3.31-.42-4.52-1.25s-2.12-2.03-2.73-3.59c-.61-1.56-.91-3.4-.91-5.52,0-2.34.38-4.28,1.13-5.82.76-1.54,1.8-2.71,3.14-3.49,1.34-.79,2.9-1.18,4.69-1.18.84,0,1.65.07,2.43.22.78.15,1.47.42,2.08.81l-.44.8c-.51-.33-1.12-.57-1.81-.71-.7-.14-1.45-.21-2.25-.21-2.42,0-4.35.79-5.79,2.36-1.44,1.57-2.17,3.93-2.17,7.07,0,.47.03,1.08.09,1.83.06.75.21,1.47.44,2.18l-.38.21c.08-1.24.43-2.3,1.06-3.18.63-.88,1.45-1.55,2.46-2,1.01-.45,2.13-.68,3.34-.68,1.37,0,2.57.25,3.59.74,1.02.49,1.82,1.19,2.39,2.11.57.91.85,1.98.85,3.2s-.29,2.31-.87,3.23c-.58.91-1.37,1.63-2.37,2.14-1,.51-2.15.77-3.45.77ZM382.17,486.09c1.14,0,2.14-.22,2.99-.65.85-.43,1.53-1.04,2.02-1.83.49-.79.74-1.7.74-2.74,0-1.57-.53-2.83-1.59-3.79-1.06-.95-2.52-1.43-4.36-1.43-1.2,0-2.25.24-3.17.71-.91.47-1.62,1.1-2.12,1.9-.5.8-.75,1.68-.75,2.67,0,.82.24,1.64.71,2.43.47.8,1.17,1.45,2.09,1.96.92.51,2.07.77,3.45.77Z"/>
    <path class="cls-1" d="M399.14,486.97c-1.61,0-2.99-.23-4.12-.69-1.14-.46-2.01-1.12-2.62-1.97-.61-.85-.91-1.87-.91-3.05s.3-2.12.91-2.93c.61-.81,1.48-1.44,2.62-1.87,1.14-.43,2.51-.65,4.12-.65s2.99.22,4.14.65c1.15.43,2.03,1.06,2.64,1.89.61.83.91,1.8.91,2.92,0,1.18-.3,2.2-.91,3.05s-1.49,1.51-2.65,1.97c-1.16.46-2.53.69-4.12.69ZM399.14,476.4c-1.47,0-2.73-.21-3.76-.62s-1.82-1-2.36-1.75c-.54-.76-.81-1.65-.81-2.67,0-1.08.28-2.01.85-2.8.57-.79,1.37-1.39,2.42-1.81,1.04-.42,2.26-.63,3.65-.63s2.64.21,3.67.63,1.84,1.03,2.42,1.81c.58.79.87,1.72.87,2.8,0,1.02-.27,1.91-.82,2.67-.55.76-1.34,1.34-2.37,1.75s-2.28.62-3.76.62ZM399.14,486.09c2.12,0,3.77-.43,4.95-1.3,1.18-.86,1.77-2.03,1.77-3.51s-.59-2.61-1.77-3.48c-1.18-.86-2.83-1.3-4.95-1.3s-3.74.43-4.91,1.3c-1.17.86-1.75,2.02-1.75,3.48s.58,2.64,1.75,3.51c1.17.86,2.8,1.3,4.91,1.3ZM399.14,475.66c1.89,0,3.35-.39,4.41-1.16,1.05-.78,1.58-1.82,1.58-3.14s-.54-2.4-1.62-3.18c-1.08-.79-2.53-1.18-4.36-1.18s-3.27.39-4.33,1.18c-1.06.79-1.59,1.85-1.59,3.18s.52,2.34,1.56,3.12c1.04.79,2.49,1.18,4.36,1.18Z"/>
    <path class="cls-1" d="M413.88,486.86v-20.15l.44.44h-5.63v-.91h6.16v20.63h-.97Z"/>
    <path class="cls-1" d="M428.26,486.97c-1.55,0-2.93-.43-4.14-1.28s-2.15-2.06-2.81-3.62-1-3.4-1-5.52.33-3.96,1-5.52c.67-1.56,1.61-2.77,2.81-3.62s2.59-1.28,4.14-1.28,2.98.43,4.17,1.28c1.19.85,2.12,2.06,2.78,3.62.67,1.56,1,3.4,1,5.52s-.33,3.96-1,5.52c-.67,1.56-1.6,2.77-2.78,3.62-1.19.85-2.58,1.28-4.17,1.28ZM428.26,486.06c1.39,0,2.61-.38,3.65-1.15,1.04-.77,1.86-1.86,2.45-3.29s.88-3.12.88-5.08-.29-3.68-.88-5.1c-.59-1.41-1.4-2.5-2.45-3.27-1.04-.77-2.26-1.15-3.65-1.15s-2.59.38-3.64,1.15-1.87,1.86-2.45,3.27c-.58,1.41-.87,3.11-.87,5.1s.29,3.66.87,5.08c.58,1.42,1.39,2.52,2.45,3.29s2.26,1.15,3.64,1.15Z"/>
    <path class="cls-1" d="M439.25,480.9v-.71l11.4-13.97h1.15l-11.4,13.97-.59-.18h16.74v.88h-17.3ZM451.09,486.86v-12.08h.97v12.08h-.97Z"/>
    <path class="cls-1" d="M460.78,486.86v-20.63h1v19.71h12.08v.91h-13.08Z"/>
  </g>
  <g>
    <path class="cls-1" d="M73.75,272.69c4.87,0,8.96.6,12.26,1.81,3.3,1.21,5.78,2.97,7.43,5.29,1.65,2.32,2.48,5.19,2.48,8.61,0,5.6-2.24,9.91-6.72,12.94-4.48,3.02-10.81,4.54-18.98,4.54-1.85,0-3.64-.06-5.38-.17-1.74-.11-3.31-.25-4.7-.42v-1.85c1.9.73,4.59,1.09,8.06,1.09,4.82,0,8.57-1.36,11.26-4.07,2.69-2.72,4.03-6.56,4.03-11.55,0-3.25-.53-5.98-1.6-8.19-1.06-2.21-2.62-3.88-4.66-5-2.04-1.12-4.55-1.68-7.52-1.68-1.12,0-2.3.01-3.53.04-1.23.03-2.34.08-3.32.17-.98.08-1.72.18-2.23.29v55.78l4.87,1.01v.84h-22.09v-.84l4.87-1.01v-55.78l-4.87-1.01v-.84h30.32Z"/>
    <path class="cls-1" d="M151.54,333.42c-1.79,0-3.49-.45-5.08-1.34s-3.11-2.24-4.54-4.03c-1.43-1.79-2.81-4.03-4.16-6.72-1.57-3.3-3.25-6.51-5.04-9.62-1.79-3.11-3.75-6.06-5.88-8.86h-6.89v27.47l4.87,1.01v.84h-22.09v-.84l4.87-1.01v-55.78l-4.87-1.01v-.84h31.25c4.42,0,8.16.52,11.21,1.55,3.05,1.04,5.33,2.59,6.85,4.66,1.51,2.07,2.27,4.68,2.27,7.81,0,2.97-.94,5.57-2.81,7.81-1.88,2.24-4.63,4-8.27,5.29-3.64,1.29-8.09,2.04-13.36,2.27v.67c2.24.11,4.25.43,6.05.97,1.79.53,3.42,1.27,4.87,2.23,1.46.95,2.73,2.14,3.82,3.57,1.09,1.43,2.06,3.1,2.9,5,1.46,3.36,2.74,6.16,3.86,8.4,1.12,2.24,2.11,3.96,2.98,5.17.87,1.21,1.61,1.92,2.23,2.14.62.28,1.2.34,1.76.17v.84c-.67.56-1.42.99-2.23,1.3-.81.31-1.62.53-2.44.67-.81.14-1.53.21-2.14.21ZM126.17,301.08c2.58,0,4.87-.32,6.89-.97,2.02-.64,3.72-1.57,5.12-2.77,1.4-1.2,2.46-2.67,3.19-4.41.73-1.73,1.09-3.72,1.09-5.96,0-2.8-.5-5.15-1.51-7.06-1.01-1.9-2.48-3.36-4.41-4.37-1.93-1.01-4.3-1.51-7.1-1.51-2.02,0-3.79.03-5.33.08-1.54.06-2.93.2-4.16.42v26.12c.67.17,1.47.28,2.39.34.92.06,2.2.08,3.82.08Z"/>
    <path class="cls-1" d="M184.71,272.69v.84l-4.87,1.01v55.78l4.87,1.01v.84h-22.09v-.84l4.87-1.01v-55.78l-4.87-1.01v-.84h22.09Z"/>
    <path class="cls-1" d="M216.89,333.42c-2.69,0-5.43-.25-8.23-.76-2.8-.5-5.53-1.22-8.19-2.14-2.66-.92-5.14-2-7.43-3.23l1.68-19.57h1.34l4.37,11.84c.84,2.74,2.11,5.05,3.82,6.93,1.71,1.88,3.75,3.29,6.13,4.24,2.38.95,4.97,1.43,7.77,1.43,2.52,0,4.66-.35,6.43-1.05,1.76-.7,3.12-1.69,4.07-2.98.95-1.29,1.43-2.83,1.43-4.62,0-2.02-.5-3.82-1.51-5.42-1.01-1.6-2.7-3.22-5.08-4.87-2.38-1.65-5.59-3.43-9.62-5.33-5.15-2.69-9.23-5.1-12.22-7.22-3-2.13-5.14-4.24-6.43-6.34-1.29-2.1-1.93-4.35-1.93-6.76s.55-4.51,1.64-6.47c1.09-1.96,2.67-3.67,4.75-5.12,2.07-1.46,4.56-2.58,7.48-3.36,2.91-.78,6.16-1.18,9.74-1.18,3.25,0,6.29.28,9.11.84,2.83.56,5.4,1.32,7.73,2.27,2.32.95,4.27,2.04,5.84,3.28l-3.11,18.4h-1.34l-2.02-7.56c-1.12-3.81-2.49-6.87-4.12-9.2-1.62-2.32-3.51-4.03-5.67-5.12-2.16-1.09-4.66-1.64-7.52-1.64s-5.2.34-7.18,1.01c-1.99.67-3.5,1.65-4.54,2.94-1.04,1.29-1.55,2.83-1.55,4.62s.59,3.6,1.76,5.25c1.18,1.65,3.16,3.39,5.96,5.21,2.8,1.82,6.58,3.88,11.34,6.17,3.75,1.74,6.87,3.37,9.37,4.91,2.49,1.54,4.51,3.07,6.05,4.58,1.54,1.51,2.65,3.05,3.32,4.62.67,1.57,1.01,3.31,1.01,5.21,0,2.35-.46,4.41-1.39,6.17-.92,1.76-2.17,3.28-3.74,4.54-1.57,1.26-3.39,2.3-5.46,3.11-2.07.81-4.3,1.41-6.68,1.81-2.38.39-4.78.59-7.18.59Z"/>
    <path class="cls-1" d="M301.22,321.16c-1.85,2.86-4.03,5.18-6.55,6.97-2.52,1.79-5.24,3.12-8.15,3.99-2.91.87-5.91,1.3-8.99,1.3-4.15,0-7.97-.69-11.47-2.06-3.5-1.37-6.54-3.39-9.11-6.05-2.58-2.66-4.58-5.89-6.01-9.7-1.43-3.81-2.14-8.12-2.14-12.94s.71-9.06,2.14-12.89c1.43-3.83,3.44-7.13,6.05-9.87,2.6-2.74,5.75-4.84,9.45-6.3,3.7-1.46,7.84-2.18,12.43-2.18,3.14,0,6.13.31,8.99.92,2.86.62,5.43,1.44,7.73,2.48,2.3,1.04,4.23,2.2,5.8,3.49l-4.54,22.51h-1.6l-2.18-12.18c-.67-3.64-1.71-6.65-3.11-9.03-1.4-2.38-3.22-4.16-5.46-5.33-2.24-1.18-4.93-1.76-8.06-1.76-2.35,0-4.48.69-6.38,2.06-1.9,1.37-3.53,3.28-4.87,5.71s-2.38,5.25-3.11,8.44c-.73,3.19-1.09,6.64-1.09,10.33,0,3.92.48,7.62,1.43,11.09.95,3.47,2.39,6.52,4.33,9.16,1.93,2.63,4.38,4.69,7.35,6.17,2.97,1.48,6.5,2.23,10.58,2.23,3.08,0,5.98-.62,8.69-1.85,2.71-1.23,5.05-3,7.01-5.29l.84.59Z"/>
    <path class="cls-1" d="M331.63,272.69v.84l-4.87,1.01v55.78l4.87,1.01v.84h-22.09v-.84l4.87-1.01v-55.78l-4.87-1.01v-.84h22.09Z"/>
    <path class="cls-1" d="M339.36,332.16v-.84l4.87-.84v-56.11l-4.87-.84v-.84h22.18v.84l-4.96.84v56.53h13.86c1.34,0,2.55-.38,3.61-1.13,1.06-.76,2.03-1.99,2.9-3.7.87-1.71,1.69-3.93,2.48-6.68l2.18-10.58h1.51l2.6,23.35h-46.37Z"/>
    <path class="cls-1" d="M389.17,332.16v-.84l5.04-1.01,22.85-57.62h7.9l22.34,57.62,4.87,1.01v.84h-24.02v-.59l5.96-1.18-18.65-48.22h-.92l-7.98,21.34c-1.23,3.02-2.17,5.94-2.81,8.74-.64,2.8-.97,5.24-.97,7.31,0,2.24.39,4.26,1.18,6.05.78,1.79,2.02,3.19,3.7,4.2s3.86,1.51,6.55,1.51v.84h-25.03ZM403.53,308.06v-.84l22.43-1.18v2.02h-22.43Z"/>
    <path class="cls-1" d="M52.42,399.16c-1.85,2.86-4.03,5.18-6.55,6.97-2.52,1.79-5.24,3.12-8.15,3.99-2.91.87-5.91,1.3-8.99,1.3-4.14,0-7.97-.69-11.47-2.06-3.5-1.37-6.54-3.39-9.11-6.05-2.58-2.66-4.58-5.89-6.01-9.7-1.43-3.81-2.14-8.12-2.14-12.94s.71-9.06,2.14-12.89c1.43-3.83,3.44-7.13,6.05-9.87,2.6-2.74,5.75-4.84,9.45-6.3,3.7-1.46,7.84-2.18,12.43-2.18,3.14,0,6.13.31,8.99.92,2.86.62,5.43,1.44,7.73,2.48,2.3,1.04,4.23,2.2,5.8,3.49l-4.54,22.51h-1.6l-2.18-12.18c-.67-3.64-1.71-6.65-3.11-9.03-1.4-2.38-3.22-4.16-5.46-5.33-2.24-1.18-4.93-1.76-8.06-1.76-2.35,0-4.48.69-6.38,2.06-1.91,1.37-3.53,3.28-4.87,5.71-1.34,2.44-2.38,5.25-3.11,8.44-.73,3.19-1.09,6.64-1.09,10.33,0,3.92.47,7.62,1.43,11.09.95,3.47,2.39,6.52,4.33,9.16,1.93,2.63,4.38,4.69,7.35,6.17,2.97,1.48,6.5,2.23,10.58,2.23,3.08,0,5.98-.62,8.69-1.85,2.72-1.23,5.05-3,7.01-5.29l.84.59Z"/>
    <path class="cls-1" d="M57.79,410.16v-.84l5.04-1.01,22.85-57.62h7.9l22.34,57.62,4.87,1.01v.84h-24.02v-.59l5.96-1.18-18.65-48.22h-.92l-7.98,21.34c-1.23,3.02-2.17,5.94-2.81,8.74-.64,2.8-.97,5.24-.97,7.31,0,2.24.39,4.26,1.18,6.05.78,1.79,2.02,3.19,3.7,4.2,1.68,1.01,3.86,1.51,6.55,1.51v.84h-25.03ZM72.16,386.06v-.84l22.43-1.18v2.02h-22.43Z"/>
    <path class="cls-1" d="M174.38,411.42c-1.79,0-3.49-.45-5.08-1.34-1.6-.9-3.11-2.24-4.54-4.03-1.43-1.79-2.81-4.03-4.16-6.72-1.57-3.3-3.25-6.51-5.04-9.62-1.79-3.11-3.75-6.06-5.88-8.86h-6.89v27.47l4.87,1.01v.84h-22.09v-.84l4.87-1.01v-55.78l-4.87-1.01v-.84h31.25c4.42,0,8.16.52,11.21,1.55,3.05,1.04,5.33,2.59,6.85,4.66,1.51,2.07,2.27,4.68,2.27,7.81,0,2.97-.94,5.57-2.81,7.81-1.88,2.24-4.63,4-8.27,5.29-3.64,1.29-8.09,2.04-13.36,2.27v.67c2.24.11,4.25.43,6.05.97,1.79.53,3.42,1.27,4.87,2.23,1.46.95,2.73,2.14,3.82,3.57,1.09,1.43,2.06,3.09,2.9,5,1.46,3.36,2.74,6.16,3.86,8.4,1.12,2.24,2.11,3.96,2.98,5.17.87,1.21,1.61,1.92,2.23,2.14.62.28,1.2.34,1.76.17v.84c-.67.56-1.42.99-2.23,1.3-.81.31-1.62.53-2.44.67-.81.14-1.53.21-2.14.21ZM149.01,379.08c2.58,0,4.87-.32,6.89-.97,2.02-.64,3.72-1.57,5.12-2.77,1.4-1.2,2.46-2.67,3.19-4.41.73-1.74,1.09-3.72,1.09-5.96,0-2.8-.5-5.15-1.51-7.06-1.01-1.9-2.48-3.36-4.41-4.37-1.93-1.01-4.3-1.51-7.1-1.51-2.02,0-3.79.03-5.33.08-1.54.06-2.93.2-4.16.42v26.12c.67.17,1.47.28,2.39.34.92.06,2.2.08,3.82.08Z"/>
    <path class="cls-1" d="M209.49,410.16l-22.43-57.62-4.87-1.01v-.84h24.11v.84l-6.05.92,18.73,48.22h.92l7.9-21.08c1.01-2.46,1.76-4.88,2.27-7.27.5-2.38.76-4.55.76-6.51,0-3.58-.87-6.59-2.6-9.03-1.74-2.44-4.4-4.19-7.98-5.25v-.84h24.61v.84l-5.04,1.01-22.43,57.62h-7.9Z"/>
    <path class="cls-1" d="M246.37,410.16v-.84l5.04-1.01,22.85-57.62h7.9l22.34,57.62,4.87,1.01v.84h-24.02v-.59l5.96-1.18-18.65-48.22h-.92l-7.98,21.34c-1.23,3.02-2.17,5.94-2.81,8.74-.64,2.8-.97,5.24-.97,7.31,0,2.24.39,4.26,1.18,6.05.78,1.79,2.02,3.19,3.7,4.2,1.68,1.01,3.86,1.51,6.55,1.51v.84h-25.03ZM260.73,386.06v-.84l22.43-1.18v2.02h-22.43Z"/>
    <path class="cls-1" d="M314.16,410.16v-.84l4.87-.84v-56.11l-4.87-.84v-.84h22.18v.84l-4.96.84v56.53h13.86c1.34,0,2.55-.38,3.61-1.13,1.06-.76,2.03-1.99,2.9-3.7.87-1.71,1.69-3.93,2.48-6.68l2.18-10.58h1.51l2.6,23.35h-46.37Z"/>
    <path class="cls-1" d="M388.5,350.69v.84l-4.37,1.01v55.78l4.37,1.01v.84h-21.59v-.84l4.87-1.01v-55.78l-4.87-1.01v-.84h21.59ZM411.51,380.34v2.02h-28.22v-.84l28.22-1.18ZM428.06,350.69v.84l-4.87,1.01v55.78l4.87,1.01v.84h-21.67v-.84l4.45-1.01v-55.78l-4.45-1.01v-.84h21.67Z"/>
    <path class="cls-1" d="M464.6,349.43c4.03,0,7.76.64,11.17,1.93,3.42,1.29,6.38,3.21,8.9,5.75,2.52,2.55,4.48,5.75,5.88,9.62,1.4,3.86,2.1,8.4,2.1,13.61s-.67,9.59-2.02,13.48c-1.34,3.89-3.28,7.13-5.8,9.7-2.52,2.58-5.49,4.54-8.9,5.88-3.42,1.34-7.2,2.02-11.34,2.02s-8.04-.67-11.51-2.02c-3.47-1.34-6.47-3.32-8.99-5.92-2.52-2.6-4.47-5.85-5.84-9.74-1.37-3.89-2.06-8.36-2.06-13.4,0-4.76.67-9.04,2.02-12.85,1.34-3.81,3.26-7.06,5.75-9.74,2.49-2.69,5.47-4.75,8.95-6.17,3.47-1.43,7.36-2.14,11.68-2.14ZM464.6,350.44c-2.63,0-4.93.6-6.89,1.81-1.96,1.21-3.6,3.04-4.91,5.5-1.32,2.46-2.31,5.54-2.98,9.24-.67,3.7-1.01,8.06-1.01,13.1s.34,9.46,1.01,13.27c.67,3.81,1.67,6.96,2.98,9.45,1.32,2.49,2.95,4.37,4.91,5.63,1.96,1.26,4.25,1.89,6.89,1.89s4.83-.62,6.76-1.85c1.93-1.23,3.54-3.09,4.83-5.59,1.29-2.49,2.25-5.63,2.9-9.41.64-3.78.97-8.25.97-13.4s-.32-9.5-.97-13.23c-.64-3.72-1.61-6.79-2.9-9.2-1.29-2.41-2.9-4.21-4.83-5.42-1.93-1.2-4.19-1.81-6.76-1.81Z"/>
  </g>
  <g>
    <path class="cls-1" d="M133.86,457.49l11.88-25.99h2.71l11.88,25.99h-2.9l-10.92-24.4h1.11l-10.92,24.4h-2.86ZM138.54,450.54l.82-2.23h15.11l.82,2.23h-16.75Z"/>
    <path class="cls-1" d="M164.65,457.49v-25.99h10.58c2.77,0,5.21.55,7.3,1.65,2.09,1.1,3.72,2.63,4.88,4.59,1.16,1.96,1.75,4.21,1.75,6.76s-.58,4.8-1.75,6.76c-1.16,1.96-2.79,3.48-4.88,4.59-2.09,1.1-4.52,1.65-7.3,1.65h-10.58ZM167.4,455.11h7.69c2.3,0,4.3-.45,6-1.36,1.7-.9,3.01-2.15,3.95-3.75.94-1.6,1.41-3.44,1.41-5.51s-.47-3.95-1.41-5.53c-.94-1.58-2.26-2.83-3.95-3.73-1.7-.9-3.7-1.36-6-1.36h-7.69v21.24Z"/>
    <path class="cls-1" d="M201.93,457.49l-11.51-25.99h2.97l10.77,24.47h-1.63l10.84-24.47h2.79l-11.51,25.99h-2.71Z"/>
    <path class="cls-1" d="M231.05,457.71c-1.96,0-3.77-.33-5.44-.98-1.67-.66-3.12-1.58-4.35-2.79-1.23-1.2-2.18-2.6-2.86-4.2-.68-1.6-1.02-3.35-1.02-5.25s.34-3.66,1.02-5.25c.68-1.6,1.63-3,2.86-4.2,1.23-1.2,2.67-2.13,4.33-2.79,1.66-.66,3.48-.98,5.46-.98s3.76.33,5.42.98c1.66.66,3.1,1.58,4.33,2.77s2.18,2.59,2.86,4.2c.68,1.61,1.02,3.37,1.02,5.27s-.34,3.66-1.02,5.27c-.68,1.61-1.63,3.01-2.86,4.2s-2.67,2.11-4.33,2.77c-1.66.66-3.47.98-5.42.98ZM231.05,455.26c1.56,0,3-.27,4.33-.8,1.32-.53,2.48-1.29,3.45-2.27.98-.98,1.74-2.12,2.28-3.42.54-1.3.82-2.73.82-4.29s-.27-2.99-.82-4.29c-.54-1.3-1.31-2.44-2.28-3.42-.98-.98-2.13-1.73-3.45-2.27-1.32-.53-2.77-.8-4.33-.8s-3.01.27-4.34.8c-1.34.53-2.5,1.29-3.49,2.27-.99.98-1.76,2.12-2.3,3.42-.54,1.3-.82,2.73-.82,4.29s.27,2.96.82,4.27c.54,1.31,1.31,2.46,2.3,3.43.99.98,2.15,1.73,3.49,2.27,1.34.53,2.79.8,4.34.8Z"/>
    <path class="cls-1" d="M262.24,457.71c-1.98,0-3.81-.33-5.48-.98-1.67-.66-3.12-1.58-4.35-2.77-1.22-1.19-2.18-2.59-2.86-4.2-.68-1.61-1.02-3.37-1.02-5.27s.34-3.66,1.02-5.27c.68-1.61,1.64-3.01,2.88-4.2,1.24-1.19,2.69-2.11,4.36-2.77,1.67-.66,3.5-.98,5.48-.98s3.79.31,5.44.93c1.65.62,3.05,1.56,4.21,2.82l-1.71,1.75c-1.09-1.09-2.29-1.87-3.6-2.34-1.31-.47-2.72-.71-4.23-.71-1.61,0-3.09.27-4.44.8-1.35.53-2.52,1.29-3.53,2.27-1,.98-1.78,2.12-2.34,3.42-.56,1.3-.83,2.73-.83,4.29s.28,2.96.83,4.27c.56,1.31,1.34,2.46,2.34,3.43,1,.98,2.18,1.73,3.53,2.27,1.35.53,2.82.8,4.4.8,1.49,0,2.89-.22,4.21-.67,1.32-.45,2.54-1.2,3.66-2.27l1.56,2.08c-1.24,1.09-2.69,1.91-4.35,2.47s-3.39.84-5.2.84ZM271.78,454.4l-2.64-.33v-9.58h2.64v9.92Z"/>
    <path class="cls-1" d="M275.39,457.49l11.88-25.99h2.71l11.88,25.99h-2.9l-10.92-24.4h1.12l-10.92,24.4h-2.86ZM280.06,450.54l.82-2.23h15.11l.82,2.23h-16.75Z"/>
    <path class="cls-1" d="M306.17,457.49v-25.99h10.58c2.77,0,5.21.55,7.3,1.65,2.09,1.1,3.72,2.63,4.88,4.59,1.16,1.96,1.75,4.21,1.75,6.76s-.58,4.8-1.75,6.76c-1.16,1.96-2.79,3.48-4.88,4.59-2.09,1.1-4.53,1.65-7.3,1.65h-10.58ZM308.92,455.11h7.69c2.3,0,4.3-.45,6-1.36s3.01-2.15,3.96-3.75c.94-1.6,1.41-3.44,1.41-5.51s-.47-3.95-1.41-5.53c-.94-1.58-2.26-2.83-3.96-3.73-1.7-.9-3.7-1.36-6-1.36h-7.69v21.24Z"/>
    <path class="cls-1" d="M332.31,457.49l11.88-25.99h2.71l11.88,25.99h-2.9l-10.92-24.4h1.11l-10.92,24.4h-2.86ZM336.99,450.54l.82-2.23h15.11l.82,2.23h-16.75Z"/>
  </g>
  <g>
    <rect class="cls-2" x="186.96" y="15.53" width="10.07" height="223.72"/>
    <polygon class="cls-2" points="212.73 239.25 212.49 239.78 212.49 239.25 212.73 239.25"/>
    <path class="cls-2" d="M305.73,81.76c-2.76,5.48-6.28,10.07-10.56,13.76-4.87,4.2-10.31,7.94-16.31,11.22-6.01,3.29-12.3,6.35-18.87,9.18-1.31.56-2.61,1.13-3.89,1.69,3.74-10.98,8.62-19.78,14.64-26.42,6.69-7.38,13.99-11.07,21.91-11.07,4.47,0,8.83.55,13.08,1.64Z"/>
    <path class="cls-2" d="M311.15,57.28c0,7.8-1.29,14.82-3.86,21.06-.2-.03-.41-.07-.61-.1-5.32-.87-10-1.31-14.03-1.31-13.01,0-25.01,3.84-36,11.52-10.99,7.68-19.7,18.14-26.13,31.38-2.26,4.66-4.12,9.45-5.58,14.4-.13.1-.26.2-.39.3-5.16,4.02-9.1,8.53-11.82,13.51V8.66c7.17-.84,14.01-1.49,20.53-1.97l26.29-.88c15.96.48,28.42,5.4,37.4,14.75,9.46,9.86,14.2,22.1,14.2,36.72Z"/>
    <path class="cls-5" d="M345.24,81.95c0,.06,0,.11-.01.17.04-.05.08-.11.11-.17h-.1Z"/>
    <path class="cls-4" d="M171.5,34.31v2.07c-.11-.7-.23-1.39-.37-2.07h.37Z"/>
  </g>
  <path class="cls-3" d="M345.24,81.95c0,.06,0,.11-.01.17.04-.05.08-.11.11-.17h-.1ZM350.83,212.58c-5.02,7.99-11.58,14.68-19.68,20.08-8.1,5.4-16.83,8.1-26.18,8.1-10.2,0-19.55-3.25-28.07-9.75-8.52-6.51-15.29-15.73-20.31-27.67s-7.53-25.37-7.53-40.27c0-13.54,1.57-26.14,4.71-37.8,5.61-2.08,11.46-4.01,17.52-5.78,7.76-2.27,15.52-4.62,23.28-7.06,7.77-2.43,15.16-5.26,22.19-8.49,5.1-2.35,9.77-4.95,14-7.81,1.81,1.77,3.5,3.63,5.07,5.56,3.15,3.87,5.51,7.7,7.07,11.46,1.56,3.77,2.34,7.21,2.34,10.33h0l.05-41.53h.06c-.03.06-.55.84-.11.17.01-.06.01-.11.01-.17h.1c1.07-1.62,2.05-3.33,2.95-5.13,3.23-6.46,4.84-13.76,4.84-21.93,0-36.59-29.01-54.89-87.02-54.89-2.93,0-6.06.06-9.38.19-3.74.39-36.99,3.06-41.02,3.55-20.68,2.49-35.67,3.73-44.96,3.73h-24.99v1.37c8.27,0,14.51,2.83,18.7,8.49,0,0,4.71,7.32,6.67,16.98h.37v204.94h-21.36l-8.55,10.07h100.81l-8.22-10.07h-21.45l-.24.53v-.53h.24v-70.98c0-6.91,1.62-13.06,4.85-18.45,1.51-2.51,3.24-4.8,5.21-6.9-1.27,6.48-1.91,13.2-1.91,20.15,0,11.94,1.66,23.12,4.97,33.54,3.31,10.42,8,19.55,14.09,27.38,6.08,7.83,13.76,14.02,23.04,18.54,9.28,4.52,19.59,6.79,30.92,6.79,13.01,0,24.85-3.5,35.54-10.5,10.69-7,18.61-15.29,23.79-24.87l-2.4-1.37ZM197.03,239.25h-10.07V15.53h10.07v223.72ZM295.17,95.52c-4.87,4.2-10.31,7.94-16.31,11.22-6.01,3.29-12.3,6.35-18.87,9.18-1.31.56-2.61,1.13-3.89,1.69,3.74-10.98,8.62-19.78,14.64-26.42,6.69-7.38,13.99-11.07,21.91-11.07,4.47,0,8.83.55,13.08,1.64-2.76,5.48-6.28,10.07-10.56,13.76ZM212.73,148.04V8.66c7.17-.84,14.01-1.49,20.53-1.97l26.29-.88c15.96.48,28.42,5.4,37.4,14.75,9.46,9.86,14.2,22.1,14.2,36.72,0,7.8-1.29,14.82-3.86,21.06-.2-.03-.41-.07-.61-.1-5.32-.87-10-1.31-14.03-1.31-13.01,0-25.01,3.84-36,11.52-10.99,7.68-19.7,18.14-26.13,31.38-2.26,4.66-4.12,9.45-5.58,14.4-.13.1-.26.2-.39.3-5.16,4.02-9.1,8.53-11.82,13.51ZM351.2,133.69c0-2.99-2.42-5.41-5.41-5.41s-5.41,2.42-5.41,5.41,2.42,5.41,5.41,5.41,5.41-2.42,5.41-5.41ZM392.65,133.69c0-2.99-2.42-5.41-5.41-5.41s-5.41,2.42-5.41,5.41,2.42,5.41,5.41,5.41,5.41-2.42,5.41-5.41ZM311.25,133.69c0-2.99-2.42-5.41-5.41-5.41s-5.41,2.42-5.41,5.41,2.42,5.41,5.41,5.41,5.41-2.42,5.41-5.41ZM377.46,131.15h-23.26v4.72h23.26v-4.72ZM337.44,131.15h-23.26v4.72h23.26v-4.72ZM302.71,141.81l-16.81,35.15h5.17l15.04-32.39h0l12.7,32.39h6.17l-15.52-35.15h-6.75ZM285.92,178.96c0,7.89,8.75,14.28,19.54,14.28s19.54-6.39,19.54-14.28h-39.07ZM367.5,194.15c0,7.89,8.75,14.28,19.54,14.28s19.54-6.39,19.54-14.28h-39.07ZM384.39,141.81l-16.9,50.63h5.2l15.12-46.66h0l12.77,46.66h6.2l-15.6-50.63h-6.79Z"/>
</svg>