<?xml version="1.0" encoding="UTF-8"?>
<svg id="Camada_1" data-name="Camada 1" xmlns="http://www.w3.org/2000/svg" xmlns:xlink="http://www.w3.org/1999/xlink" viewBox="0 0 435.27 409.22">
  <defs>
    <style>
      .cls-1 {
        fill: none;
      }

      .cls-2 {
        fill: url(#Gradiente_sem_nome_8-3);
      }

      .cls-3 {
        fill: url(#Gradiente_sem_nome_8-2);
      }

      .cls-4 {
        fill: url(#Gradiente_sem_nome_8);
      }
    </style>
    <linearGradient id="Gradiente_sem_nome_8" data-name="Gradiente sem nome 8" x1="334.22" y1="134.65" x2="334.42" y2="134.65" gradientUnits="userSpaceOnUse">
      <stop offset="0" stop-color="#a67e38"/>
      <stop offset=".99" stop-color="#ebd591"/>
    </linearGradient>
    <linearGradient id="Gradiente_sem_nome_8-2" data-name="Gradiente sem nome 8" x1="-42.35" y1="58.01" x2="345.07" y2="58.01" xlink:href="#Gradiente_sem_nome_8"/>
    <linearGradient id="Gradiente_sem_nome_8-3" data-name="Gradiente sem nome 8" x1="0" y1="204.61" x2="435.27" y2="204.61" xlink:href="#Gradiente_sem_nome_8"/>
  </defs>
  <g>
    <rect class="cls-1" x="74.47" y="25.49" width="16.53" height="367.2"/>
    <polygon class="cls-1" points="116.77 392.69 116.37 393.56 116.37 392.69 116.77 392.69"/>
    <path class="cls-1" d="M269.41,134.2c-4.53,8.99-10.31,16.53-17.33,22.58-7.99,6.89-16.92,13.03-26.77,18.42-9.86,5.4-20.19,10.42-30.97,15.07-2.15.92-4.28,1.85-6.38,2.77,6.14-18.02,14.15-32.47,24.03-43.36,10.98-12.11,22.96-18.17,35.96-18.17,7.34,0,14.49.9,21.47,2.69Z"/>
    <path class="cls-1" d="M278.31,94.02c0,12.8-2.12,24.32-6.34,34.57-.33-.05-.67-.11-1-.16-8.73-1.43-16.41-2.15-23.03-2.15-21.35,0-41.05,6.3-59.09,18.91-18.04,12.61-32.33,29.77-42.89,51.51-3.71,7.65-6.76,15.51-9.16,23.64-.21.16-.43.33-.64.49-8.47,6.6-14.94,14-19.4,22.17V14.21c11.77-1.38,23-2.45,33.7-3.23l43.15-1.44c26.2.79,46.65,8.86,61.39,24.21,15.53,16.18,23.31,36.27,23.31,60.27Z"/>
    <path class="cls-4" d="M334.26,134.51c0,.1,0,.18-.02.28.07-.08.13-.18.18-.28h-.16Z"/>
    <path class="cls-3" d="M49.09,56.31v3.4c-.18-1.15-.38-2.28-.61-3.4h.61Z"/>
  </g>
  <path class="cls-2" d="M334.26,134.51c0,.1,0,.18-.02.28.07-.08.13-.18.18-.28h-.16ZM343.44,348.92c-8.24,13.11-19.01,24.1-32.3,32.96-13.29,8.86-27.62,13.29-42.97,13.29-16.74,0-32.09-5.33-46.07-16-13.98-10.69-25.1-25.82-33.34-45.42s-12.36-41.64-12.36-66.1c0-22.22,2.58-42.9,7.73-62.04,9.21-3.41,18.81-6.58,28.76-9.49,12.74-3.73,25.47-7.58,38.21-11.59,12.75-3.99,24.88-8.63,36.42-13.94,8.37-3.86,16.04-8.12,22.98-12.82,2.97,2.91,5.74,5.96,8.32,9.13,5.17,6.35,9.04,12.64,11.6,18.81,2.56,6.19,3.84,11.83,3.84,16.96h0l.07-68.16h.09c-.05.1-.9,1.38-.18.28.02-.1.02-.18.02-.28h.16c1.76-2.66,3.36-5.47,4.84-8.42,5.3-10.6,7.94-22.58,7.94-35.99C347.21,30.04,299.59,0,204.38,0c-4.81,0-9.95.1-15.4.31-6.14.64-60.71,5.02-67.33,5.83-33.94,4.09-58.55,6.12-73.79,6.12H6.84v2.25c13.57,0,23.82,4.65,30.69,13.94,0,0,7.73,12.01,10.95,27.87h.61v336.38H14.03l-14.03,16.53h165.46l-13.49-16.53h-35.21l-.39.87v-.87h.39v-116.5c0-11.34,2.66-21.44,7.96-30.28,2.48-4.12,5.32-7.88,8.55-11.33-2.08,10.64-3.13,21.67-3.13,33.07,0,19.6,2.72,37.95,8.16,55.05,5.43,17.1,13.13,32.09,23.13,44.94,9.98,12.85,22.58,23.01,37.82,30.43,15.23,7.42,32.15,11.14,50.75,11.14,21.35,0,40.79-5.74,58.33-17.23,17.55-11.49,30.55-25.1,39.05-40.82l-3.94-2.25ZM91,392.69h-16.53V25.49h16.53v367.2ZM252.08,156.78c-7.99,6.89-16.92,13.03-26.77,18.42-9.86,5.4-20.19,10.42-30.97,15.07-2.15.92-4.28,1.85-6.38,2.77,6.14-18.02,14.15-32.47,24.03-43.36,10.98-12.11,22.96-18.17,35.96-18.17,7.34,0,14.49.9,21.47,2.69-4.53,8.99-10.31,16.53-17.33,22.58ZM116.77,242.98V14.21c11.77-1.38,23-2.45,33.7-3.23l43.15-1.44c26.2.79,46.65,8.86,61.39,24.21,15.53,16.18,23.31,36.27,23.31,60.27,0,12.8-2.12,24.32-6.34,34.57-.33-.05-.67-.11-1-.16-8.73-1.43-16.41-2.15-23.03-2.15-21.35,0-41.05,6.3-59.09,18.91-18.04,12.61-32.33,29.77-42.89,51.51-3.71,7.65-6.76,15.51-9.16,23.64-.21.16-.43.33-.64.49-8.47,6.6-14.94,14-19.4,22.17ZM344.04,219.43c0-4.91-3.98-8.88-8.88-8.88s-8.88,3.98-8.88,8.88,3.98,8.88,8.88,8.88,8.88-3.98,8.88-8.88ZM412.08,219.43c0-4.91-3.98-8.88-8.88-8.88s-8.88,3.98-8.88,8.88,3.98,8.88,8.88,8.88,8.88-3.98,8.88-8.88ZM278.46,219.43c0-4.91-3.98-8.88-8.88-8.88s-8.88,3.98-8.88,8.88,3.98,8.88,8.88,8.88,8.88-3.98,8.88-8.88ZM387.13,215.27h-38.17v7.75h38.17v-7.75ZM321.46,215.27h-38.17v7.75h38.17v-7.75ZM264.45,232.76l-27.59,57.7h8.49l24.69-53.17h0l20.85,53.17h10.12l-25.48-57.7h-11.09ZM236.89,293.73c0,12.94,14.36,23.43,32.06,23.43s32.06-10.49,32.06-23.43h-64.13ZM370.78,318.67c0,12.94,14.36,23.43,32.06,23.43s32.06-10.49,32.06-23.43h-64.13ZM398.52,232.76l-27.73,83.11h8.54l24.82-76.58h0l20.96,76.58h10.17l-25.61-83.11h-11.14Z"/>
</svg>